<mxfile modified="2023-01-24T20:20:39.102Z" host="drawio-plugin" agent="5.0 (X11; Linux x86_64) AppleWebKit/537.36 (KHTML, like Gecko) Chrome/98.0.4758.102 Safari/537.36" etag="rKhVqrczWw9hcwdS9YmQ" version="20.5.3" type="embed"><diagram id="PKrw68s-FcHz-RrZCr9i" name="Page-1"><mxGraphModel dx="762" dy="1328" grid="1" gridSize="10" guides="1" tooltips="1" connect="1" arrows="1" fold="1" page="1" pageScale="1" pageWidth="827" pageHeight="1169" math="0" shadow="0"><root><mxCell id="0"/><mxCell id="1" parent="0"/><mxCell id="33" value="" style="edgeStyle=orthogonalEdgeStyle;rounded=0;orthogonalLoop=1;jettySize=auto;html=1;endArrow=none;endFill=0;" edge="1" parent="1" source="Gvd8Ezxa3fLg7O33Pl0G-1" target="3"><mxGeometry relative="1" as="geometry"/></mxCell><mxCell id="Gvd8Ezxa3fLg7O33Pl0G-1" value="Начало" style="rounded=1;whiteSpace=wrap;html=1;arcSize=50;" parent="1" vertex="1"><mxGeometry x="290" y="100" width="140" height="60" as="geometry"/></mxCell><mxCell id="Gvd8Ezxa3fLg7O33Pl0G-6" value="EXPANDCLUSTER&lt;br&gt;Вход: текущая точка D, соседи N, текущий кластер C, eps, MinPt&amp;nbsp;&lt;br&gt;Выход: кластер C" style="text;html=1;strokeColor=none;fillColor=none;align=center;verticalAlign=middle;whiteSpace=wrap;rounded=0;" parent="1" vertex="1"><mxGeometry x="508" y="107" width="250.5" height="40" as="geometry"/></mxCell><mxCell id="Gvd8Ezxa3fLg7O33Pl0G-37" value="Конец" style="rounded=1;whiteSpace=wrap;html=1;arcSize=50;" parent="1" vertex="1"><mxGeometry x="301.5" y="940" width="120" height="60" as="geometry"/></mxCell><mxCell id="Gvd8Ezxa3fLg7O33Pl0G-42" value="Вернуть С" style="text;html=1;resizable=0;points=[];autosize=1;align=left;verticalAlign=top;spacingTop=-4;" parent="1" vertex="1"><mxGeometry x="500" y="960" width="80" height="20" as="geometry"/></mxCell><mxCell id="7Xwj2gsnW8v6YeENi7_U-5" value="" style="endArrow=none;dashed=1;html=1;exitX=1;exitY=0.5;exitDx=0;exitDy=0;entryX=0.5;entryY=1;entryDx=0;entryDy=0;" parent="1" source="Gvd8Ezxa3fLg7O33Pl0G-37" target="7Xwj2gsnW8v6YeENi7_U-10" edge="1"><mxGeometry width="50" height="50" relative="1" as="geometry"><mxPoint x="393.5" y="680" as="sourcePoint"/><mxPoint x="473.5" y="1050" as="targetPoint"/></mxGeometry></mxCell><mxCell id="7Xwj2gsnW8v6YeENi7_U-6" value="" style="shape=partialRectangle;whiteSpace=wrap;html=1;bottom=1;right=1;left=1;top=0;fillColor=none;routingCenterX=-0.5;rotation=90;" parent="1" vertex="1"><mxGeometry x="490" y="100" width="68" height="60" as="geometry"/></mxCell><mxCell id="7Xwj2gsnW8v6YeENi7_U-9" value="" style="endArrow=none;dashed=1;html=1;entryX=0.5;entryY=1;entryDx=0;entryDy=0;" parent="1" target="7Xwj2gsnW8v6YeENi7_U-6" edge="1"><mxGeometry width="50" height="50" relative="1" as="geometry"><mxPoint x="430" y="129.5" as="sourcePoint"/><mxPoint x="470" y="130" as="targetPoint"/></mxGeometry></mxCell><mxCell id="7Xwj2gsnW8v6YeENi7_U-10" value="" style="shape=partialRectangle;whiteSpace=wrap;html=1;bottom=1;right=1;left=1;top=0;fillColor=none;routingCenterX=-0.5;rotation=90;" parent="1" vertex="1"><mxGeometry x="470" y="940" width="68" height="60" as="geometry"/></mxCell><mxCell id="24" value="" style="edgeStyle=orthogonalEdgeStyle;rounded=0;orthogonalLoop=1;jettySize=auto;html=1;entryX=0.5;entryY=0;entryDx=0;entryDy=0;endArrow=none;endFill=0;" edge="1" parent="1" source="7Xwj2gsnW8v6YeENi7_U-22" target="bSRUe1ibWbnndraF5bIK-1"><mxGeometry relative="1" as="geometry"/></mxCell><mxCell id="7Xwj2gsnW8v6YeENi7_U-22" value="neighbors = query_neighbors(k, eps)" style="shape=process;whiteSpace=wrap;html=1;backgroundOutline=1;" parent="1" vertex="1"><mxGeometry x="390" y="520" width="148" height="50" as="geometry"/></mxCell><mxCell id="12" style="edgeStyle=orthogonalEdgeStyle;rounded=0;orthogonalLoop=1;jettySize=auto;html=1;entryX=0.5;entryY=0;entryDx=0;entryDy=0;endArrow=none;endFill=0;exitX=1;exitY=0.5;exitDx=0;exitDy=0;" parent="1" source="bSRUe1ibWbnndraF5bIK-1" target="25" edge="1"><mxGeometry relative="1" as="geometry"><Array as="points"><mxPoint x="590" y="650"/><mxPoint x="590" y="760"/><mxPoint x="461" y="760"/></Array><mxPoint x="361.5" y="790" as="targetPoint"/></mxGeometry></mxCell><mxCell id="15" value="Да" style="edgeLabel;html=1;align=center;verticalAlign=middle;resizable=0;points=[];" parent="12" vertex="1" connectable="0"><mxGeometry x="-0.0829" y="-2" relative="1" as="geometry"><mxPoint x="4" y="-103" as="offset"/></mxGeometry></mxCell><mxCell id="13" style="edgeStyle=orthogonalEdgeStyle;rounded=0;orthogonalLoop=1;jettySize=auto;html=1;entryX=0.5;entryY=0;entryDx=0;entryDy=0;endArrow=none;endFill=0;exitX=0;exitY=0.5;exitDx=0;exitDy=0;" parent="1" source="bSRUe1ibWbnndraF5bIK-1" target="bSRUe1ibWbnndraF5bIK-2" edge="1"><mxGeometry relative="1" as="geometry"><Array as="points"><mxPoint x="331" y="650"/></Array></mxGeometry></mxCell><mxCell id="14" value="Нет" style="edgeLabel;html=1;align=center;verticalAlign=middle;resizable=0;points=[];" parent="13" vertex="1" connectable="0"><mxGeometry x="-0.3629" relative="1" as="geometry"><mxPoint x="-16" y="-10" as="offset"/></mxGeometry></mxCell><mxCell id="bSRUe1ibWbnndraF5bIK-1" value="len(neighbors) &amp;lt; MinPt" style="rhombus;whiteSpace=wrap;html=1;" parent="1" vertex="1"><mxGeometry x="387.25" y="620" width="153.5" height="60" as="geometry"/></mxCell><mxCell id="45" style="edgeStyle=orthogonalEdgeStyle;rounded=0;orthogonalLoop=1;jettySize=auto;html=1;entryX=0.5;entryY=0;entryDx=0;entryDy=0;endArrow=none;endFill=0;" edge="1" parent="1" source="bSRUe1ibWbnndraF5bIK-2" target="25"><mxGeometry relative="1" as="geometry"/></mxCell><mxCell id="bSRUe1ibWbnndraF5bIK-2" value="N = N + { neighbors }" style="rounded=0;whiteSpace=wrap;html=1;" parent="1" vertex="1"><mxGeometry x="240.5" y="680" width="181" height="50" as="geometry"/></mxCell><mxCell id="34" value="" style="edgeStyle=orthogonalEdgeStyle;rounded=0;orthogonalLoop=1;jettySize=auto;html=1;endArrow=none;endFill=0;" edge="1" parent="1" source="3" target="4"><mxGeometry relative="1" as="geometry"/></mxCell><mxCell id="3" value="C = C + { D }&amp;nbsp;&lt;br&gt;n = len(C)" style="rounded=0;whiteSpace=wrap;html=1;" parent="1" vertex="1"><mxGeometry x="287.5" y="190" width="145" height="60" as="geometry"/></mxCell><mxCell id="29" style="edgeStyle=orthogonalEdgeStyle;rounded=0;orthogonalLoop=1;jettySize=auto;html=1;entryX=0.5;entryY=0;entryDx=0;entryDy=0;" edge="1" parent="1" source="4" target="Gvd8Ezxa3fLg7O33Pl0G-37"><mxGeometry relative="1" as="geometry"><mxPoint x="90" y="840" as="targetPoint"/><Array as="points"><mxPoint x="160" y="310"/><mxPoint x="160" y="880"/><mxPoint x="362" y="880"/></Array></mxGeometry></mxCell><mxCell id="30" value="Да" style="edgeLabel;html=1;align=center;verticalAlign=middle;resizable=0;points=[];" vertex="1" connectable="0" parent="29"><mxGeometry x="-0.8724" y="-1" relative="1" as="geometry"><mxPoint x="-62" y="-19" as="offset"/></mxGeometry></mxCell><mxCell id="37" style="edgeStyle=orthogonalEdgeStyle;rounded=0;orthogonalLoop=1;jettySize=auto;html=1;entryX=0.471;entryY=0;entryDx=0;entryDy=0;entryPerimeter=0;endArrow=none;endFill=0;" edge="1" parent="1" source="4" target="7"><mxGeometry relative="1" as="geometry"/></mxCell><mxCell id="4" value="len(N) == 0?" style="rhombus;whiteSpace=wrap;html=1;" parent="1" vertex="1"><mxGeometry x="283.25" y="280" width="153.5" height="60" as="geometry"/></mxCell><mxCell id="7" value="k = pop(N)" style="rounded=0;whiteSpace=wrap;html=1;" parent="1" vertex="1"><mxGeometry x="291.75" y="370" width="145" height="50" as="geometry"/></mxCell><mxCell id="39" style="edgeStyle=orthogonalEdgeStyle;rounded=0;orthogonalLoop=1;jettySize=auto;html=1;entryX=0.5;entryY=0;entryDx=0;entryDy=0;endArrow=none;endFill=0;" edge="1" parent="1" source="22" target="7Xwj2gsnW8v6YeENi7_U-22"><mxGeometry relative="1" as="geometry"><Array as="points"><mxPoint x="464" y="480"/></Array></mxGeometry></mxCell><mxCell id="44" value="Да" style="edgeLabel;html=1;align=center;verticalAlign=middle;resizable=0;points=[];" vertex="1" connectable="0" parent="39"><mxGeometry x="-0.0152" y="-2" relative="1" as="geometry"><mxPoint x="-1" y="-25" as="offset"/></mxGeometry></mxCell><mxCell id="40" style="edgeStyle=orthogonalEdgeStyle;rounded=0;orthogonalLoop=1;jettySize=auto;html=1;entryX=0.5;entryY=0;entryDx=0;entryDy=0;endArrow=none;endFill=0;" edge="1" parent="1" source="22" target="25"><mxGeometry relative="1" as="geometry"><Array as="points"><mxPoint x="200" y="480"/><mxPoint x="200" y="780"/><mxPoint x="461" y="780"/></Array></mxGeometry></mxCell><mxCell id="43" value="Нет" style="edgeLabel;html=1;align=center;verticalAlign=middle;resizable=0;points=[];" vertex="1" connectable="0" parent="40"><mxGeometry x="-0.8592" relative="1" as="geometry"><mxPoint x="-26" y="-10" as="offset"/></mxGeometry></mxCell><mxCell id="22" value="visited(k) == False?" style="rhombus;whiteSpace=wrap;html=1;" vertex="1" parent="1"><mxGeometry x="281.5" y="450" width="153.5" height="60" as="geometry"/></mxCell><mxCell id="23" value="" style="edgeStyle=orthogonalEdgeStyle;rounded=0;orthogonalLoop=1;jettySize=auto;html=1;endArrow=none;endFill=0;" edge="1" parent="1" source="7" target="22"><mxGeometry relative="1" as="geometry"><mxPoint x="358.28571428571433" y="420" as="sourcePoint"/><mxPoint x="361.02857142857135" y="520" as="targetPoint"/><Array as="points"><mxPoint x="358" y="440"/><mxPoint x="358" y="440"/></Array></mxGeometry></mxCell><mxCell id="27" value="" style="edgeStyle=orthogonalEdgeStyle;rounded=0;orthogonalLoop=1;jettySize=auto;html=1;exitX=0.5;exitY=1;exitDx=0;exitDy=0;" edge="1" parent="1" source="25" target="26"><mxGeometry relative="1" as="geometry"/></mxCell><mxCell id="42" value="Да" style="edgeLabel;html=1;align=center;verticalAlign=middle;resizable=0;points=[];" vertex="1" connectable="0" parent="27"><mxGeometry x="-0.3438" y="1" relative="1" as="geometry"><mxPoint as="offset"/></mxGeometry></mxCell><mxCell id="32" style="edgeStyle=orthogonalEdgeStyle;rounded=0;orthogonalLoop=1;jettySize=auto;html=1;entryX=0.5;entryY=0;entryDx=0;entryDy=0;endArrow=none;endFill=0;" edge="1" parent="1" source="25" target="4"><mxGeometry relative="1" as="geometry"><Array as="points"><mxPoint x="640" y="820"/><mxPoint x="640" y="270"/><mxPoint x="360" y="270"/></Array></mxGeometry></mxCell><mxCell id="41" value="Нет" style="edgeLabel;html=1;align=center;verticalAlign=middle;resizable=0;points=[];" vertex="1" connectable="0" parent="32"><mxGeometry x="-0.5523" y="1" relative="1" as="geometry"><mxPoint as="offset"/></mxGeometry></mxCell><mxCell id="25" value="k in C?" style="rhombus;whiteSpace=wrap;html=1;" vertex="1" parent="1"><mxGeometry x="384.5" y="790" width="153.5" height="60" as="geometry"/></mxCell><mxCell id="46" style="edgeStyle=orthogonalEdgeStyle;rounded=0;orthogonalLoop=1;jettySize=auto;html=1;entryX=0.5;entryY=0;entryDx=0;entryDy=0;endArrow=none;endFill=0;" edge="1" parent="1" source="26" target="4"><mxGeometry relative="1" as="geometry"><Array as="points"><mxPoint x="720" y="880"/><mxPoint x="720" y="270"/><mxPoint x="360" y="270"/></Array></mxGeometry></mxCell><mxCell id="26" value="C[n] = C[n] + { k }" style="whiteSpace=wrap;html=1;" vertex="1" parent="1"><mxGeometry x="580" y="850" width="120" height="60" as="geometry"/></mxCell></root></mxGraphModel></diagram></mxfile>